<?xml version="1.0" encoding="utf-8"?>
<svg width="400px" height="400px" viewBox="0 0 400 400" version="1.1" xmlns:xlink="http://www.w3.org/1999/xlink" xmlns="http://www.w3.org/2000/svg">
  <defs>
    <path d="M0 134.5C0 60.2177 60.2177 0 134.5 0C208.782 0 269 60.2177 269 134.5C269 208.782 208.782 269 134.5 269C60.2177 269 0 208.782 0 134.5Z" id="path_1" />
    <rect width="400" height="400" id="artboard_1" />
    <clipPath id="clip_1">
      <use xlink:href="#artboard_1" clip-rule="evenodd" />
    </clipPath>
    <clipPath id="clip_2">
      <use xlink:href="#path_1" />
    </clipPath>
  </defs>
  <g id="Artboard-2" clip-path="url(#clip_1)">
    <use xlink:href="#artboard_1" stroke="none" fill="#000000" />
    <g id="SXIERL" fill="#BCBCBC" transform="translate(44.999878 302)" artboard="b8bd46e0-cbcf-4bba-9437-99d32644a6f6">
      <path d="M33.0117 34.4336L33.0117 17.9453L31.7109 17.9453Q31.3594 19.5977 30.7793 20.1426Q30.1992 20.6875 29.2852 20.6875Q28.4766 20.6875 26.5078 19.8086Q22.2539 17.9453 18.457 17.9453Q12.375 17.9453 8.4375 21.6543Q4.5 25.3633 4.5 30.4961Q4.5 33.4492 5.83594 35.9102Q7.17187 38.3711 9.75586 40.4102Q12.3398 42.4492 18.457 45.877Q24.5742 49.3047 25.9453 50.3594Q27.9844 51.9063 28.9512 53.6992Q29.918 55.4922 29.918 57.25Q29.918 60.4141 27.3691 62.7344Q24.8203 65.0547 20.4258 65.0547Q16.6289 65.0547 13.4473 63.3672Q10.2656 61.6797 8.71875 59.1309Q7.17187 56.582 6.25781 51.4492L4.95703 51.4492L4.95703 67.7969L6.25781 67.7969Q6.50391 66.1445 7.01367 65.6172Q7.52344 65.0898 8.40234 65.0898Q9.31641 65.0898 12.7441 66.1973Q16.1719 67.3047 17.2617 67.4805Q19.0898 67.7969 21.1641 67.7969Q27.7734 67.7969 31.9746 63.877Q36.1758 59.957 36.1758 54.543Q36.1758 51.6953 34.8574 49.0938Q33.5391 46.4922 31.0957 44.5762Q28.6523 42.6602 21.9727 39.0742Q13.7812 34.6797 11.6016 32.043Q10.0898 30.25 10.0898 28.0703Q10.0898 25.2227 12.4805 22.9902Q14.8711 20.7578 18.5273 20.7578Q21.7617 20.7578 24.7852 22.4102Q27.8086 24.0625 29.4434 26.875Q31.0781 29.6875 31.7109 34.4336L33.0117 34.4336ZM93.6641 55.5625L83.4336 40.3047L92.8906 28.2109Q95.7734 24.5195 97.3555 23.1484Q98.9375 21.7773 100.836 20.9688Q102.102 20.4414 104.105 20.3359L104.105 19.0352L87.1953 19.0352L87.1953 20.3359Q89.7266 20.3711 90.5352 20.6699Q91.3438 20.9688 91.8711 21.707Q92.293 22.2695 92.293 23.0078Q92.293 23.7461 91.959 24.4492Q91.625 25.1523 90.1484 27.0508L81.6758 37.7734L74.3633 26.8398Q72.6758 24.3438 72.6758 23.043Q72.6758 22.0586 73.7129 21.25Q74.75 20.4414 77.5625 20.3359L77.5625 19.0352L55.5195 19.0352L55.5195 20.3359Q59 20.4414 61.6719 22.1816Q64.3438 23.9219 68.1758 29.5117L77.5625 43.2578L66.3125 57.4609Q63.7813 60.6602 61.8125 62.207Q59.8438 63.7539 57.6641 64.668Q56.3633 65.2305 54.5703 65.4063L54.5703 66.707L71.4805 66.707L71.4805 65.4063Q68.8086 65.3008 67.8594 64.5625Q66.9102 63.8242 66.9102 62.6992Q66.9102 61.9609 67.2266 61.2754Q67.543 60.5898 69.125 58.5508L79.1094 45.7539L87.1953 57.9883Q88.8828 60.4844 89.1289 61.082Q89.4453 61.8906 89.4453 62.6992Q89.4453 63.3672 88.9707 64.0176Q88.4961 64.668 87.7578 64.9844Q86.7734 65.3711 84.7344 65.4063L84.7344 66.707L105.195 66.707L105.195 65.4063Q102.031 65.2305 99.9746 63.5605Q97.918 61.8906 93.6641 55.5625ZM142.258 65.4063L142.258 66.707L121.832 66.707L121.832 65.4063L123.52 65.4063Q126.473 65.4063 127.809 63.6836Q128.652 62.5586 128.652 58.2695L128.652 27.4727Q128.652 23.8516 128.195 22.6914Q127.844 21.8125 126.754 21.1797Q125.207 20.3359 123.52 20.3359L121.832 20.3359L121.832 19.0352L142.258 19.0352L142.258 20.3359L140.535 20.3359Q137.617 20.3359 136.281 22.0586Q135.402 23.1836 135.402 27.4727L135.402 58.2695Q135.402 61.8906 135.859 63.0508Q136.211 63.9297 137.336 64.5625Q138.848 65.4063 140.535 65.4063L142.258 65.4063ZM173.063 40.4805L173.063 21.6367L186.141 21.6367Q189.691 21.6367 191.098 22.1641Q192.855 22.9023 193.752 24.3086Q194.648 25.7148 195.387 29.4766L196.758 29.4766L196.23 19.0352L159.492 19.0352L159.492 20.3359L161.18 20.3359Q164.133 20.3359 165.398 21.7422Q166.313 22.7969 166.313 27.332L166.313 58.3047Q166.313 61.7852 165.908 62.9102Q165.504 64.0352 164.379 64.5977Q162.867 65.4063 161.18 65.4063L159.492 65.4063L159.492 66.707L196.23 66.707L200.344 54.7539L198.938 54.7539Q196.652 59.1484 194.473 61.3281Q192.785 62.9805 190.957 63.543Q189.129 64.1055 185.086 64.1055L177 64.1055Q175.031 64.1055 174.328 63.7012Q173.625 63.2969 173.344 62.6113Q173.063 61.9258 173.063 58.7617L173.063 43.0469L183.539 43.0469Q186.527 43.0469 187.969 43.75Q189.41 44.4531 190.043 45.6836Q190.535 46.668 191.027 50.1484L192.328 50.1484L192.328 33.5547L191.027 33.5547Q190.816 37.6328 188.988 39.25Q187.617 40.4805 183.539 40.4805L173.063 40.4805ZM264.652 66.707L251.926 66.707L235.789 44.418Q233.996 44.4883 232.871 44.4883Q232.414 44.4883 231.887 44.4707Q231.359 44.4531 230.797 44.418L230.797 58.2695Q230.797 62.7695 231.781 63.8594Q233.117 65.4063 235.789 65.4063L237.652 65.4063L237.652 66.707L217.227 66.707L217.227 65.4063L219.02 65.4063Q222.043 65.4063 223.344 63.4375Q224.082 62.3477 224.082 58.2695L224.082 27.4727Q224.082 22.9727 223.098 21.8828Q221.727 20.3359 219.02 20.3359L217.227 20.3359L217.227 19.0352L234.594 19.0352Q242.188 19.0352 245.791 20.1426Q249.395 21.25 251.908 24.2207Q254.422 27.1914 254.422 31.3047Q254.422 35.6992 251.557 38.9336Q248.691 42.168 242.68 43.5039L252.523 57.1797Q255.898 61.8906 258.324 63.4375Q260.75 64.9844 264.652 65.4063L264.652 66.707ZM320.453 53.7695L319.293 53.5234Q317.465 57.9531 315.637 60.0098Q313.809 62.0664 311.594 62.875Q309.379 63.6836 303.895 63.6836L300.414 63.6836Q295.809 63.6836 294.93 63.332Q294.051 62.9805 293.629 62.2422Q293.066 61.1523 293.066 58.2344L293.066 28.2813Q293.066 24.0273 293.629 22.9023Q294.191 21.7773 295.721 21.0391Q297.25 20.3008 301.047 20.3359L301.047 19.0352L279.461 19.0352L279.461 20.3359L281.254 20.3359Q283.961 20.3359 285.332 21.8828Q286.316 23.0078 286.316 27.4727L286.316 58.2344Q286.316 62.3125 285.578 63.4375Q284.277 65.4063 281.254 65.4063L279.461 65.4063L279.461 66.707L316.375 66.707L320.453 53.7695ZM230.797 42.2031Q231.465 42.2031 231.957 42.2207Q232.449 42.2383 232.766 42.2383Q239.586 42.2383 243.049 39.2852Q246.512 36.332 246.512 31.7617Q246.512 27.2969 243.717 24.502Q240.922 21.707 236.316 21.707Q234.277 21.707 230.797 22.375L230.797 42.2031Z" />
    </g>
    <g id="Group-2" transform="translate(65.99988 21)" artboard="09419e93-9e94-4f26-b02a-015ad3a7f061">
      <g id="Ellipse">
        <g clip-path="url(#clip_2)">
          <use xlink:href="#path_1" fill="none" stroke="#C5C5C5" stroke-width="8" />
        </g>
      </g>
      <path d="M2.24167 134.5L265.862 134.5" id="Line" fill="none" fill-rule="evenodd" stroke="#C5C5C5" stroke-width="4" stroke-linecap="square" />
      <path d="M134.5 2.69L134.5 266.31" id="Line-2" fill="none" fill-rule="evenodd" stroke="#C5C5C5" stroke-width="4" stroke-linecap="square" />
      <path d="M256.904 188.935C134.936 137.89 12.1053 188.935 12.1053 188.935" id="New-shape" fill="none" fill-rule="evenodd" stroke="#C5C5C5" stroke-width="4" />
      <path d="M11.2084 80.6986C134.065 131.742 257.792 80.6986 257.792 80.6986" id="New-shape-2" fill="none" fill-rule="evenodd" stroke="#C5C5C5" stroke-width="4" />
      <path d="M45.7301 34.9701C134.634 86.0133 224.167 34.9701 224.167 34.9701" id="New-shape-2-Copy" fill="none" fill-rule="evenodd" stroke="#C5C5C5" stroke-width="4" />
      <path d="M221.485 234.667C133.918 183.622 45.7316 234.667 45.7316 234.667" id="New-shape-2-Copy-2" fill="none" fill-rule="evenodd" stroke="#C5C5C5" stroke-width="4" />
      <path d="M156.653 266.32C207.698 134.97 156.653 2.68997 156.653 2.68997" id="New-shape-2-Copy-3" fill="none" fill-rule="evenodd" stroke="#C5C5C5" stroke-width="4" />
      <path d="M202.385 249.283C253.43 134.91 202.385 19.7274 202.385 19.7274" id="New-shape-2-Copy-4" fill="none" fill-rule="evenodd" stroke="#C5C5C5" stroke-width="4" />
      <path d="M112.357 2.69005C61.312 134.04 112.357 266.32 112.357 266.32" id="New-shape-2-Copy-5" fill="none" fill-rule="evenodd" stroke="#C5C5C5" stroke-width="4" />
      <path d="M66.6255 19.7271C15.5804 134.1 66.6255 249.282 66.6255 249.282" id="New-shape-2-Copy-6" fill="none" fill-rule="evenodd" stroke="#C5C5C5" stroke-width="4" />
    </g>
  </g>
</svg>